# xmcd
#
# Track frame offsets: 
#        150
#        21900
#        41290
#        58795
#        90487
#        113132
#        134347
#        152915
#
# Disc length: 2307 seconds
#
# Revision: 0
# Processed by: cddbd v1.5.2PL0 Copyright (c) Steve Scherf et al.
# Submitted via: ExactAudioCopyFreeDBPlugin 1.0
#
DISCID=61090108
DTITLE=Jean Carn - Sweet And Wonderfull
DYEAR=1981
DGENRE=Funk
TTITLE0=Bet Your Lucky Star
TTITLE1=Don't Say No (To Love)
TTITLE2=Sweet And Wonderful
TTITLE3=Love Don't Love Nobody
TTITLE4=We Got Some Catchin' Up To Do
TTITLE5=Mystic Stranger
TTITLE6=I Just Thought Of A Way
TTITLE7=Love (Makes Me Do Foolish Things)
EXTD=
EXTT0=
EXTT1=
EXTT2=
EXTT3=
EXTT4=
EXTT5=
EXTT6=
EXTT7=
PLAYORDER=
